# xmcd
#
# Track frame offsets:
#	150
#	25475
#	41547
#	57450
#	72877
#	95255
#	109812
#	126175
#	143560
#	161135
#	180755
#
# Disc length: 2576 seconds
#
# Revision: 2
# Processed by: cddbd v1.5.1PL2 Copyright (c) Steve Scherf et al.
# Submitted via: MusicWizard 7.2.0
#
DISCID=910a0e0b
DTITLE=Red, Tampa - Don't Jive Me
DYEAR=1992
DGENRE=Blues
TTITLE0=How Long
TTITLE1=Gin Headed Woman
TTITLE2=Don't Jive Me
TTITLE3=You Better Let My Gal Alone
TTITLE4=Dark And Stormy Night
TTITLE5=Don't You Lie To Me
TTITLE6=Georgia, Georgia
TTITLE7=Jelly Whippin' Blues
TTITLE8=Chicago Moan Blues
TTITLE9=Don't Dog Your Woman
TTITLE10=Drinkin' My Blues Away
EXTD=
EXTT0=
EXTT1=
EXTT2=
EXTT3=
EXTT4=
EXTT5=
EXTT6=
EXTT7=
EXTT8=
EXTT9=
EXTT10=
PLAYORDER=
